<svg xmlns="http://www.w3.org/2000/svg" xmlns:xlink="http://www.w3.org/1999/xlink">
    <symbol id="icon-refresh" viewBox="0 0 24 24">
        <path fill="currentColor" d="M17.65 6.35C16.2 4.9 14.21 4 12 4c-4.42 0-7.99 3.58-7.99 8s3.57 8 7.99 8c3.73 0 6.84-2.55 7.73-6h-2.08c-.82 2.33-3.04 4-5.65 4-3.31 0-6-2.69-6-6s2.69-6 6-6c1.66 0 3.14.69 4.22 1.78L13 11h7V4l-2.35 2.35z"/>
    </symbol>
    <symbol id="icon-play" viewBox="0 0 24 24">
        <path fill="currentColor" d="M8 5v14l11-7z"/>
    </symbol>
    <symbol id="icon-stop" viewBox="0 0 24 24">
        <path fill="currentColor" d="M6 6h12v12H6z"/>
    </symbol>
    <symbol id="icon-record" viewBox="0 0 24 24">
        <path fill="currentColor" d="M12 2C6.48 2 2 6.48 2 12s4.48 10 10 10 10-4.48 10-10S17.52 2 12 2z"/>
    </symbol>
    <symbol id="icon-chevron-down" viewBox="0 0 24 24">
        <path fill="currentColor" d="M12.3704 15.8351L18.8001 9.20467C19.2013 8.79094 18.9581 8 18.4297 8H5.5703C5.04189 8 4.79869 8.79094 5.1999 9.20467L11.6296 15.8351C11.8427 16.055 12.1573 16.0549 12.3704 15.8351Z"/>
    </symbol>
    <symbol id="icon-chevron-up" viewBox="0 0 24 24">
        <path fill="currentColor" d="M12.3704 8.16485L18.8001 14.7953C19.2013 15.2091 18.9581 16 18.4297 16H5.5703C5.04189 16 4.79869 15.2091 5.1999 14.7953L11.6296 8.16485C11.8427 7.94505 12.1573 7.94505 12.3704 8.16485Z"/>
    </symbol>
    <symbol id="icon-fullscreen-enter" viewBox="0 0 24 24">
        <path fill="currentColor" d="M16.1429 1.25C15.7286 1.25 15.3929 1.58579 15.3929 2C15.3929 2.41421 15.7286 2.75 16.1429 2.75H20.1893L14.4697 8.46967C14.1768 8.76256 14.1768 9.23744 14.4697 9.53033C14.7626 9.82322 15.2374 9.82322 15.5303 9.53033L21.25 3.81066V7.85714C21.25 8.27136 21.5858 8.60714 22 8.60714C22.4142 8.60714 22.75 8.27136 22.75 7.85714V2C22.75 1.58579 22.4142 1.25 22 1.25H16.1429Z"/>
        <path fill="currentColor" d="M7.85714 22.75C8.27136 22.75 8.60714 22.4142 8.60714 22C8.60714 21.5858 8.27136 21.25 7.85714 21.25H3.81066L9.53033 15.5303C9.82322 15.2374 9.82322 14.7626 9.53033 14.4697C9.23744 14.1768 8.76256 14.1768 8.46967 14.4697L2.75 20.1893V16.1429C2.75 15.7286 2.41421 15.3929 2 15.3929C1.58579 15.3929 1.25 15.7286 1.25 16.1429V22C1.25 22.4142 1.58579 22.75 2 22.75H7.85714Z"/>
    </symbol>
    <symbol id="icon-fullscreen-exit" viewBox="0 0 24 24">
        <path fill="currentColor" d="M20.8571 9.75C21.2714 9.75 21.6071 9.41421 21.6071 9C21.6071 8.58579 21.2714 8.25 20.8571 8.25H16.8107L22.5303 2.53033C22.8232 2.23744 22.8232 1.76256 22.5303 1.46967C22.2374 1.17678 21.7626 1.17678 21.4697 1.46967L15.75 7.18934V3.14286C15.75 2.72864 15.4142 2.39286 15 2.39286C14.5858 2.39286 14.25 2.72864 14.25 3.14286V9C14.25 9.41421 14.5858 9.75 15 9.75H20.8571Z"/>
        <path fill="currentColor" d="M3.14286 14.25C2.72864 14.25 2.39286 14.5858 2.39286 15C2.39286 15.4142 2.72864 15.75 3.14286 15.75H7.18934L1.46967 21.4697C1.17678 21.7626 1.17678 22.2374 1.46967 22.5303C1.76256 22.8232 2.23744 22.8232 2.53033 22.5303L8.25 16.8107V20.8571C8.25 21.2714 8.58579 21.6071 9 21.6071C9.41421 21.6071 9.75 21.2714 9.75 20.8571V15C9.75 14.5858 9.41421 14.25 9 14.25H3.14286Z"/>
    </symbol>
    <symbol id="icon-actors" viewBox="0 0 32 32">
        <g transform="translate(-99 -154) scale(1)">
            <path fill="currentColor" d="M128.735,157.585 L116.047,170.112 L114.65,168.733 L127.339,156.206 C127.725,155.825 128.35,155.825 128.735,156.206 C129.121,156.587 129.121,157.204 128.735,157.585 L128.735,157.585 Z"/>
            <path fill="currentColor" d="M112.556,173.56 C112.427,173.433 111.159,172.181 111.159,172.181 L113.254,170.112 L114.65,171.491 L112.556,173.56 L112.556,173.56 Z"/>
            <path fill="currentColor" d="M110.461,178.385 C109.477,179.298 105.08,181.333 102.491,179.36 C102.491,179.36 103.392,178.657 104.074,177.246 C105.703,172.919 109.763,173.56 109.763,173.56 L111.159,174.938 C111.173,174.952 112.202,176.771 110.461,178.385 L110.461,178.385 Z"/>
            <path fill="currentColor" d="M130.132,154.827 C128.975,153.685 127.099,153.685 125.942,154.827 L108.764,171.788 C106.661,171.74 103.748,172.485 102.491,176.603 C101.53,178.781 99,178.671 99,178.671 C104.253,184.498 110.444,181.196 111.857,179.764 C113.1,178.506 113.279,176.966 113.146,175.734 L130.132,158.964 C131.289,157.821 131.289,155.969 130.132,154.827 L130.132,154.827 Z"/>
        </g>
    </symbol>
    <symbol id="icon-stats" viewBox="0 0 32 32">
        <g transform="translate(3 0) scale(1)">
            <path fill="currentColor" d="M14 0h-2c-1.1 0-2 .9-2 2v28c0 1.1.9 2 2 2h2c1.1 0 2-.9 2-2V2c0-1.1-.9-2-2-2zm10 16h-2c-1.1 0-2 .9-2 2v12c0 1.1.9 2 2 2h2c1.1 0 2-.9 2-2V18c0-1.1-.9-2-2-2zM4 9H2c-1.1 0-2 .9-2 2v19c0 1.1.9 2 2 2h2c1.1 0 2-.9 2-2V11c0-1.1-.9-2-2-2z"/>
        </g>
    </symbol>
    <symbol id="icon-settings" viewBox="0 0 24 24">
        <path fill="currentColor" d="M19.43,12.98c0.04,-0.32 0.07,-0.64 0.07,-0.98s-0.03,-0.66 -0.07,-0.98l2.11,-1.65c0.19,-0.15 0.24,-0.42 0.12,-0.64l-2,-3.46c-0.12,-0.22 -0.39,-0.3 -0.61,-0.22l-2.49,1c-0.52,-0.4 -1.08,-0.73 -1.69,-0.98l-0.38,-2.65C14.46,2.18 14.25,2 14,2h-4c-0.25,0 -0.46,0.18 -0.49,0.42l-0.38,2.65c-0.61,0.25 -1.17,0.59 -1.69,0.98l-2.49,-1c-0.23,0.09 -0.49,0 -0.61,0.22l-2,3.46c-0.13,0.22 -0.07,0.49 0.12,0.64l2.11,1.65c-0.04,0.32 -0.07,0.65 -0.07,0.98s0.03,0.66 0.07,0.98l-2.11,1.65c-0.19,0.15 -0.24,0.42 -0.12,0.64l2,3.46c0.12,0.22 0.39,0.3 0.61,0.22l2.49,-1c0.52,0.4 1.08,0.73 1.69,0.98l0.38,2.65c0.03,0.24 0.24,0.42 0.49,0.42h4c0.25,0 0.46,-0.18 0.49,-0.42l0.38,-2.65c0.61,-0.25 1.17,-0.59 1.69,-0.98l2.49,1c0.23,0.09 0.49,0 0.61,-0.22l2,-3.46c0.12,-0.22 0.07,-0.49 -0.12,-0.64L19.43,12.98zM12,15.5c-1.93,0 -3.5,-1.57 -3.5,-3.5s1.57,-3.5 3.5,-3.5s3.5,1.57 3.5,3.5S13.93,15.5 12,15.5z"/>
    </symbol>
    <symbol id="icon-copy" viewBox="0 0 24 24">
        <path fill="currentColor" d="M16 1H4c-1.1 0-2 .9-2 2v14h2V3h12V1zm3 4H8c-1.1 0-2 .9-2 2v14c0 1.1.9 2 2 2h11c1.1 0 2-.9 2-2V7c0-1.1-.9-2-2-2zm0 16H8V7h11v14z"/>
    </symbol>
    <symbol id="icon-track" viewBox="0 0 24 24">
        <path fill="currentColor" fill-rule="evenodd" clip-rule="evenodd" d="M2 12C2 8.22876 2 6.34315 3.17157 5.17157C4.34315 4 6.22876 4 10 4H14C17.7712 4 19.6569 4 20.8284 5.17157C22 6.34315 22 8.22876 22 12C22 15.7712 22 17.6569 20.8284 18.8284C19.6569 20 17.7712 20 14 20H10C6.22876 20 4.34315 20 3.17157 18.8284C2 17.6569 2 15.7712 2 12ZM6 15.25C5.58579 15.25 5.25 15.5858 5.25 16C5.25 16.4142 5.58579 16.75 6 16.75H10C10.4142 16.75 10.75 16.4142 10.75 16C10.75 15.5858 10.4142 15.25 10 15.25H6ZM7.75 13C7.75 12.5858 7.41421 12.25 7 12.25H6C5.58579 12.25 5.25 12.5858 5.25 13C5.25 13.4142 5.58579 13.75 6 13.75H7C7.41421 13.75 7.75 13.4142 7.75 13ZM11.5 12.25C11.9142 12.25 12.25 12.5858 12.25 13C12.25 13.4142 11.9142 13.75 11.5 13.75H9.5C9.08579 13.75 8.75 13.4142 8.75 13C8.75 12.5858 9.08579 12.25 9.5 12.25H11.5ZM18.75 13C18.75 12.5858 18.4142 12.25 18 12.25H14C13.5858 12.25 13.25 12.5858 13.25 13C13.25 13.4142 13.5858 13.75 14 13.75H18C18.4142 13.75 18.75 13.4142 18.75 13ZM12.5 15.25C12.0858 15.25 11.75 15.5858 11.75 16C11.75 16.4142 12.0858 16.75 12.5 16.75H14C14.4142 16.75 14.75 16.4142 14.75 16C14.75 15.5858 14.4142 15.25 14 15.25H12.5ZM15.75 16C15.75 15.5858 16.0858 15.25 16.5 15.25H18C18.4142 15.25 18.75 15.5858 18.75 16C18.75 16.4142 18.4142 16.75 18 16.75H16.5C16.0858 16.75 15.75 16.4142 15.75 16Z"/>
    </symbol>
    <symbol id="icon-filter" viewBox="0 0 24 24">
        <path fill="currentColor" d="M19 3H5C3.58579 3 2.87868 3 2.43934 3.4122C2 3.8244 2 4.48782 2 5.81466V6.50448C2 7.54232 2 8.06124 2.2596 8.49142C2.5192 8.9216 2.99347 9.18858 3.94202 9.72255L6.85504 11.3624C7.49146 11.7206 7.80967 11.8998 8.03751 12.0976C8.51199 12.5095 8.80408 12.9935 8.93644 13.5872C9 13.8722 9 14.2058 9 14.8729L9 17.5424C9 18.452 9 18.9067 9.25192 19.2613C9.50385 19.6158 9.95128 19.7907 10.8462 20.1406C12.7248 20.875 13.6641 21.2422 14.3321 20.8244C15 20.4066 15 19.4519 15 17.5424V14.8729C15 14.2058 15 13.8722 15.0636 13.5872C15.1959 12.9935 15.488 12.5095 15.9625 12.0976C16.1903 11.8998 16.5085 11.7206 17.145 11.3624L20.058 9.72255C21.0065 9.18858 21.4808 8.9216 21.7404 8.49142C22 8.06124 22 7.54232 22 6.50448V5.81466C22 4.48782 22 3.8244 21.5607 3.4122C21.1213 3 20.4142 3 19 3Z"/>
    </symbol>
    <symbol id="icon-role-reset" viewBox="0 0 24 24">
        <path fill="currentColor" fill-rule="evenodd" clip-rule="evenodd" d="M22 12C22 17.5228 17.5228 22 12 22C6.47715 22 2 17.5228 2 12C2 6.47715 6.47715 2 12 2C17.5228 2 22 6.47715 22 12ZM8.96963 8.96965C9.26252 8.67676 9.73739 8.67676 10.0303 8.96965L12 10.9393L13.9696 8.96967C14.2625 8.67678 14.7374 8.67678 15.0303 8.96967C15.3232 9.26256 15.3232 9.73744 15.0303 10.0303L13.0606 12L15.0303 13.9696C15.3232 14.2625 15.3232 14.7374 15.0303 15.0303C14.7374 15.3232 14.2625 15.3232 13.9696 15.0303L12 13.0607L10.0303 15.0303C9.73742 15.3232 9.26254 15.3232 8.96965 15.0303C8.67676 14.7374 8.67676 14.2625 8.96965 13.9697L10.9393 12L8.96963 10.0303C8.67673 9.73742 8.67673 9.26254 8.96963 8.96965Z"/>
    </symbol>
</svg>
